# xmcd
#
# Track frame offsets: 
#        150
#        14637
#        28634
#        55467
#        76167
#        89613
#        104692
#        124348
#        136641
#        152831
#        179015
#        194721
#        214812
#        233227
#        249210
#
# Disc length: 3547 seconds
#
# Revision: 0
# Processed by: cddbd v1.5.2PL0 Copyright (c) Steve Scherf et al.
# Submitted via: ExactAudioCopy v1.0b1
#
DISCID=d70dd90f
DTITLE=Paul James Band - La Vie en Bleu
DYEAR=2003
DGENRE=Blues
TTITLE0=The Last Clean Shirt
TTITLE1=Louie Louie
TTITLE2=Like a Rolling Stone
TTITLE3=Carol
TTITLE4=Red Hot Mama
TTITLE5=Take it Easy
TTITLE6=Red Rooster
TTITLE7=Hey Now Rosie
TTITLE8=Caladonia
TTITLE9=It's All Over Now Baby Blue
TTITLE10=Gloria
TTITLE11=Highway 61
TTITLE12=Sweet Virginia
TTITLE13=Gotta Give Me Some of It
TTITLE14=(I Can't Get No) Satisfaction
EXTD=
EXTT0=
EXTT1=
EXTT2=
EXTT3=
EXTT4=
EXTT5=
EXTT6=
EXTT7=
EXTT8=
EXTT9=
EXTT10=
EXTT11=
EXTT12=
EXTT13=
EXTT14=
PLAYORDER=
